<svg width="20" height="18" viewBox="0 0 20 18" fill="none" xmlns="http://www.w3.org/2000/svg">
<path d="M8.81118 2.23176L9.52447 2.46353L8.81118 2.23176L7.43447 6.46885H2.97933C1.76843 6.46885 1.26496 8.01837 2.2446 8.73012L5.84888 11.3488L4.47217 15.5859C4.09798 16.7375 5.41608 17.6952 6.39572 16.9834L10 14.3647L13.6043 16.9834C14.5839 17.6952 15.902 16.7375 15.5278 15.5859L14.1511 11.3488L17.7554 8.73012C18.735 8.01836 18.2316 6.46885 17.0207 6.46885H12.5655L11.1888 2.23176C10.8146 1.08012 9.18537 1.08013 8.81118 2.23176ZM14.095 11.176C14.095 11.1762 14.0951 11.1763 14.0951 11.1764L14.095 11.176Z" stroke="#8E8E8E" stroke-width="1.5"/>
</svg>
